<svg xmlns="http://www.w3.org/2000/svg" width="80" height="90" viewBox="0 0 110 110">
  <g id="Group_4292" data-name="Group 4292" transform="translate(-165 -189)">
    <circle id="Ellipse_362" data-name="Ellipse 362" cx="55" cy="55" r="55" transform="translate(165 189)" fill="#ABD948" opacity="0.5"/>
    <circle id="Ellipse_363" data-name="Ellipse 363" cx="40" cy="40" r="40" transform="translate(180 204)" fill="#ABD948"/>
    <g id="Group_4270" data-name="Group 4270" transform="translate(0)">
      <g id="clipboard_1_" data-name="clipboard (1)" transform="translate(205 224)">
        <g id="Group_4263" data-name="Group 4263" transform="translate(12.345 9.025)">
          <g id="Group_4262" data-name="Group 4262" transform="translate(0)">
            <g id="Group_4255" data-name="Group 4255">
              <g id="Group_4253" data-name="Group 4253" transform="translate(0 2.957)">
                <path id="Path_5893" data-name="Path 5893" d="M231.49,157.127h-6.257a.576.576,0,1,1,0-1.152h6.257a.576.576,0,0,1,0,1.152Z" transform="translate(-224.657 -155.975)" fill="#fff"/>
              </g>
              <g id="Group_4254" data-name="Group 4254">
                <path id="Path_5894" data-name="Path 5894" d="M237.747,118.63H225.233a.576.576,0,1,1,0-1.152h12.514a.576.576,0,1,1,0,1.152Z" transform="translate(-224.657 -117.478)" fill="#fff"/>
              </g>
            </g>
            <g id="Group_4258" data-name="Group 4258" transform="translate(0 9.655)">
              <g id="Group_4256" data-name="Group 4256" transform="translate(0 2.957)">
                <path id="Path_5895" data-name="Path 5895" d="M231.49,282.814h-6.257a.576.576,0,0,1,0-1.152h6.257a.576.576,0,0,1,0,1.152Z" transform="translate(-224.657 -281.662)" fill="#fff"/>
              </g>
              <g id="Group_4257" data-name="Group 4257">
                <path id="Path_5896" data-name="Path 5896" d="M237.747,244.316H225.233a.576.576,0,0,1,0-1.152h12.514a.576.576,0,0,1,0,1.152Z" transform="translate(-224.657 -243.164)" fill="#fff"/>
              </g>
            </g>
            <g id="Group_4261" data-name="Group 4261" transform="translate(0 19.311)">
              <g id="Group_4259" data-name="Group 4259" transform="translate(0 2.957)">
                <path id="Path_5897" data-name="Path 5897" d="M231.49,408.5h-6.257a.576.576,0,0,1,0-1.152h6.257a.576.576,0,0,1,0,1.152Z" transform="translate(-224.657 -407.349)" fill="#fff"/>
              </g>
              <g id="Group_4260" data-name="Group 4260">
                <path id="Path_5898" data-name="Path 5898" d="M237.747,370H225.233a.576.576,0,1,1,0-1.152h12.514a.576.576,0,0,1,0,1.152Z" transform="translate(-224.657 -368.851)" fill="#fff"/>
              </g>
            </g>
          </g>
        </g>
        <g id="Group_4264" data-name="Group 4264" transform="translate(8.053 0)">
          <path id="Path_5899" data-name="Path 5899" d="M180.472,5.427h-9.964A1.719,1.719,0,0,1,168.79,3.71V1.718A1.72,1.72,0,0,1,170.508,0h9.964a1.72,1.72,0,0,1,1.718,1.718V3.71A1.719,1.719,0,0,1,180.472,5.427Zm-9.964-4.275a.566.566,0,0,0-.565.565V3.71a.566.566,0,0,0,.565.565h9.964a.566.566,0,0,0,.565-.565V1.718a.566.566,0,0,0-.565-.565Z" transform="translate(-168.79 0)" fill="#fff"/>
        </g>
        <g id="Group_4268" data-name="Group 4268" transform="translate(3.495 8.252)">
          <g id="Group_4265" data-name="Group 4265" transform="translate(0)">
            <path id="Path_5900" data-name="Path 5900" d="M113.556,113.078h-2.561a1.549,1.549,0,0,1-1.547-1.547v-2.561a1.549,1.549,0,0,1,1.547-1.547h2.561a1.549,1.549,0,0,1,1.547,1.547v2.561A1.549,1.549,0,0,1,113.556,113.078Zm-2.561-4.5a.4.4,0,0,0-.395.395v2.561a.4.4,0,0,0,.395.395h2.561a.4.4,0,0,0,.395-.395v-2.561a.4.4,0,0,0-.395-.395Z" transform="translate(-109.448 -107.424)" fill="#fff"/>
          </g>
          <g id="Group_4266" data-name="Group 4266" transform="translate(0 9.655)">
            <path id="Path_5901" data-name="Path 5901" d="M113.556,238.764h-2.561a1.549,1.549,0,0,1-1.547-1.547v-2.561a1.549,1.549,0,0,1,1.547-1.547h2.561a1.549,1.549,0,0,1,1.547,1.547v2.561A1.549,1.549,0,0,1,113.556,238.764Zm-2.561-4.5a.4.4,0,0,0-.395.395v2.561a.4.4,0,0,0,.395.395h2.561a.4.4,0,0,0,.395-.395v-2.561a.4.4,0,0,0-.395-.395Z" transform="translate(-109.448 -233.11)" fill="#fff"/>
          </g>
          <g id="Group_4267" data-name="Group 4267" transform="translate(0 19.311)">
            <path id="Path_5902" data-name="Path 5902" d="M113.556,364.451h-2.561a1.549,1.549,0,0,1-1.547-1.547v-2.561a1.549,1.549,0,0,1,1.547-1.547h2.561a1.549,1.549,0,0,1,1.547,1.547V362.9A1.549,1.549,0,0,1,113.556,364.451Zm-2.561-4.5a.4.4,0,0,0-.395.395V362.9a.4.4,0,0,0,.395.395h2.561a.4.4,0,0,0,.395-.395v-2.561a.4.4,0,0,0-.395-.395Z" transform="translate(-109.448 -358.796)" fill="#fff"/>
          </g>
        </g>
        <g id="Group_4269" data-name="Group 4269" transform="translate(0 2.138)">
          <path id="Path_5903" data-name="Path 5903" d="M90.968,65.021H66.454a2.5,2.5,0,0,1-2.5-2.5v-32.2a2.5,2.5,0,0,1,2.5-2.5h3.453a.576.576,0,0,1,0,1.152H66.454a1.345,1.345,0,0,0-1.344,1.344v32.2a1.345,1.345,0,0,0,1.344,1.344H90.968a1.345,1.345,0,0,0,1.344-1.344v-32.2a1.345,1.345,0,0,0-1.344-1.344H87.515a.576.576,0,0,1,0-1.152h3.453a2.5,2.5,0,0,1,2.5,2.5v32.2A2.5,2.5,0,0,1,90.968,65.021Z" transform="translate(-63.958 -27.826)" fill="#fff" stroke="#fff" stroke-width="1"/>
        </g>
      </g>
      <rect id="Rectangle_1597" data-name="Rectangle 1597" width="4.721" height="4.721" rx="1" transform="translate(209.131 232.599)" fill="#fff"/>
      <rect id="Rectangle_1598" data-name="Rectangle 1598" width="4.721" height="4.721" rx="1" transform="translate(209.131 242.041)" fill="#fff"/>
      <rect id="Rectangle_1599" data-name="Rectangle 1599" width="4.721" height="4.721" rx="1" transform="translate(209.131 251.482)" fill="#fff"/>
    </g>
  </g>
</svg>
