<svg xmlns="http://www.w3.org/2000/svg" width="80" height="90" viewBox="0 0 110 110">
  <g id="Group_4293" data-name="Group 4293" transform="translate(-765 -189)">
    <circle id="Ellipse_365" data-name="Ellipse 365" cx="55" cy="55" r="55" transform="translate(765 189)" fill="#72C7C4" opacity="0.5"/>
    <circle id="Ellipse_364" data-name="Ellipse 364" cx="40" cy="40" r="40" transform="translate(780 204)" fill="#72C7C4"/>
    <g id="hour-glass" transform="translate(802.409 226)">
      <g id="Group_3433" data-name="Group 3433" transform="translate(7.591)">
        <path id="Path_5845" data-name="Path 5845" d="M27.591,4.546C27.591,1.19,22.2,0,17.591,0s-10,1.19-10,4.546c0,3.852,4.5,11.07,7.257,13.889-2.759,2.819-7.257,10.037-7.257,13.889,0,3.357,5.388,4.546,10,4.546s10-1.191,10-4.546c0-3.852-4.5-11.07-7.257-13.889C23.093,15.616,27.591,8.4,27.591,4.546ZM26.48,32.323c0,2.291-4.444,3.434-8.889,3.434S8.7,34.612,8.7,32.323c0-4.052,5.716-12.531,7.833-13.889C14.418,17.078,8.7,8.6,8.7,4.546c0-2.29,4.444-3.434,8.889-3.434S26.48,2.257,26.48,4.546c0,4.053-5.717,12.532-7.833,13.889C20.763,19.791,26.48,28.27,26.48,32.323Z" transform="translate(-7.591 0)" fill="#fff"/>
        <path id="Path_5846" data-name="Path 5846" d="M10.527,31.021c0,.207,2.317.806,6.738.806S24,31.228,24,31.021c0-3.058-6.738-5.163-6.738-10.639C17.265,25.858,10.527,27.849,10.527,31.021Z" transform="translate(-7.265 2.265)" fill="#fff"/>
        <path id="Path_5847" data-name="Path 5847" d="M17.061,16.395l.13,1.184.13-1.184c1.32-.744,5.861-6.617,5.861-9.134,0-.332-2.06-1.294-5.993-1.294s-5.993.961-5.993,1.294C11.2,9.778,15.741,15.65,17.061,16.395Z" transform="translate(-7.191 0.663)" fill="#fff"/>
      </g>
    </g>
  </g>
</svg>
