<svg xmlns="http://www.w3.org/2000/svg" width="20" height="25" viewBox="0 0 23 30.327"><defs><style>.a,.b{fill:#fff;}.b{stroke:#fff;}</style></defs><g transform="translate(-63.458 0.5)"><g transform="translate(73.163 6.729)"><g transform="translate(0)"><g transform="translate(0 2.205)"><path class="a" d="M229.752,156.834h-4.665a.43.43,0,0,1,0-.859h4.665a.43.43,0,0,1,0,.859Z" transform="translate(-224.657 -155.975)"/></g><path class="a" d="M234.417,118.337h-9.33a.43.43,0,0,1,0-.859h9.33a.43.43,0,1,1,0,.859Z" transform="translate(-224.657 -117.478)"/><g transform="translate(0 7.199)"><g transform="translate(0 2.205)"><path class="a" d="M229.752,282.521h-4.665a.43.43,0,0,1,0-.859h4.665a.43.43,0,1,1,0,.859Z" transform="translate(-224.657 -281.662)"/></g><path class="a" d="M234.417,244.023h-9.33a.43.43,0,1,1,0-.859h9.33a.43.43,0,1,1,0,.859Z" transform="translate(-224.657 -243.164)"/></g><g transform="translate(0 14.398)"><g transform="translate(0 2.205)"><path class="a" d="M229.752,408.208h-4.665a.43.43,0,0,1,0-.859h4.665a.43.43,0,0,1,0,.859Z" transform="translate(-224.657 -407.349)"/></g><path class="a" d="M234.417,369.71h-9.33a.43.43,0,0,1,0-.859h9.33a.43.43,0,1,1,0,.859Z" transform="translate(-224.657 -368.851)"/></g></g></g><g transform="translate(69.963 0)"><path class="b" d="M177.5,4.047h-7.429a1.282,1.282,0,0,1-1.281-1.281V1.281A1.282,1.282,0,0,1,170.071,0H177.5a1.282,1.282,0,0,1,1.281,1.281V2.766A1.282,1.282,0,0,1,177.5,4.047ZM170.071.859a.422.422,0,0,0-.421.421V2.766a.422.422,0,0,0,.421.421H177.5a.422.422,0,0,0,.421-.421V1.281A.422.422,0,0,0,177.5.859Z" transform="translate(-168.79 0)"/></g><g transform="translate(66.564 6.153)"><g transform="translate(0)"><path class="a" d="M112.511,111.64H110.6a1.155,1.155,0,0,1-1.153-1.153v-1.909a1.155,1.155,0,0,1,1.153-1.153h1.909a1.155,1.155,0,0,1,1.153,1.153v1.909A1.155,1.155,0,0,1,112.511,111.64Zm-1.909-3.357a.3.3,0,0,0-.294.294v1.909a.3.3,0,0,0,.294.294h1.909a.3.3,0,0,0,.294-.294v-1.909a.3.3,0,0,0-.294-.294Z" transform="translate(-109.448 -107.424)"/></g><g transform="translate(0 7.199)"><path class="a" d="M112.511,237.326H110.6a1.155,1.155,0,0,1-1.153-1.153v-1.909a1.155,1.155,0,0,1,1.153-1.153h1.909a1.155,1.155,0,0,1,1.153,1.153v1.909A1.155,1.155,0,0,1,112.511,237.326Zm-1.909-3.357a.3.3,0,0,0-.294.294v1.909a.3.3,0,0,0,.294.294h1.909a.3.3,0,0,0,.294-.294v-1.909a.3.3,0,0,0-.294-.294Z" transform="translate(-109.448 -233.11)"/></g><g transform="translate(0 14.398)"><path class="a" d="M112.511,363.012H110.6a1.155,1.155,0,0,1-1.153-1.153v-1.909A1.155,1.155,0,0,1,110.6,358.8h1.909a1.155,1.155,0,0,1,1.153,1.153v1.909A1.155,1.155,0,0,1,112.511,363.012Zm-1.909-3.357a.3.3,0,0,0-.294.294v1.909a.3.3,0,0,0,.294.294h1.909a.3.3,0,0,0,.294-.294V359.95a.3.3,0,0,0-.294-.294Z" transform="translate(-109.448 -358.796)"/></g></g><g transform="translate(63.958 1.594)"><path class="b" d="M84.1,55.559H65.819A1.863,1.863,0,0,1,63.958,53.7V29.687a1.863,1.863,0,0,1,1.861-1.861h2.574a.43.43,0,0,1,0,.859H65.819a1,1,0,0,0-1,1V53.7a1,1,0,0,0,1,1H84.1a1,1,0,0,0,1-1V29.687a1,1,0,0,0-1-1H81.523a.43.43,0,1,1,0-.859H84.1a1.863,1.863,0,0,1,1.861,1.861V53.7A1.863,1.863,0,0,1,84.1,55.559Z" transform="translate(-63.958 -27.826)"/></g></g></svg>