<svg xmlns="http://www.w3.org/2000/svg" width="20" height="20" viewBox="0 0 22.074 22.074"><defs><style>.a{fill:#fff;}</style></defs><g transform="translate(0)"><path class="a" d="M14.655,22.074A2.97,2.97,0,0,1,11.687,19.1V14.653a2.97,2.97,0,0,1,2.968-2.967h4.451a2.971,2.971,0,0,1,2.968,2.968v4.453a2.971,2.971,0,0,1-2.968,2.967Zm-.371-7.42v4.453a.376.376,0,0,0,.371.369h4.451a.376.376,0,0,0,.371-.371V14.653a.377.377,0,0,0-.371-.37H14.655A.377.377,0,0,0,14.283,14.654ZM2.969,22.074A2.971,2.971,0,0,1,0,19.1V14.653a2.971,2.971,0,0,1,2.969-2.967H7.42a2.971,2.971,0,0,1,2.968,2.968v4.453A2.971,2.971,0,0,1,7.42,22.074ZM2.6,14.654v4.453a.376.376,0,0,0,.371.369H7.42a.376.376,0,0,0,.371-.371V14.653a.377.377,0,0,0-.371-.37H2.969A.377.377,0,0,0,2.6,14.654Zm12.058-4.266a2.97,2.97,0,0,1-2.968-2.969V2.968A2.97,2.97,0,0,1,14.655,0h4.451a2.971,2.971,0,0,1,2.968,2.968V7.421a2.971,2.971,0,0,1-2.968,2.967Zm-.371-7.42V7.421a.376.376,0,0,0,.371.37h4.451a.376.376,0,0,0,.371-.371V2.968a.377.377,0,0,0-.371-.371H14.655A.377.377,0,0,0,14.283,2.968ZM2.969,10.388A2.971,2.971,0,0,1,0,7.419V2.968A2.971,2.971,0,0,1,2.969,0H7.42a2.971,2.971,0,0,1,2.968,2.968V7.421A2.971,2.971,0,0,1,7.42,10.388ZM2.6,2.968V7.421a.376.376,0,0,0,.371.37H7.42a.376.376,0,0,0,.371-.371V2.968A.377.377,0,0,0,7.42,2.6H2.969A.377.377,0,0,0,2.6,2.968Z"/></g></svg>