<svg xmlns="http://www.w3.org/2000/svg" width="32" height="18" viewBox="0 0 36.827 18.413"><defs><style>.a{fill:#72c7c4;}</style></defs><g transform="translate(0 -96.243)"><g transform="translate(0 96.243)"><path class="a" d="M24.527,98.545H.791c-.437,0-.791-.516-.791-1.151s.354-1.151.791-1.151H24.527c.437,0,.791.516.791,1.151S24.964,98.545,24.527,98.545Z" transform="translate(0 -96.243)"/><path class="a" d="M1.151,180.455H35.676a1.151,1.151,0,1,1,0,2.3H1.151a1.151,1.151,0,1,1,0-2.3Z" transform="translate(0 -172.399)"/><path class="a" d="M121.454,264.667h23.017a1.151,1.151,0,1,1,0,2.3H121.454a1.151,1.151,0,1,1,0-2.3Z" transform="translate(-120.303 -248.556)"/></g></g></svg>