<svg xmlns="http://www.w3.org/2000/svg" xmlns:xlink="http://www.w3.org/1999/xlink" width="40" height="40" viewBox="0 0 58 58"><defs><style>.a{fill:#fff;stroke:rgba(112,112,112,0.21);}.b{fill:#2e384d;}.c{stroke:none;}.d{fill:none;}.e{filter:url(#a);}</style><filter id="a" x="0" y="0" width="58" height="58" filterUnits="userSpaceOnUse"><feOffset dy="3" input="SourceAlpha"/><feGaussianBlur stdDeviation="3" result="b"/><feFlood flood-opacity="0.161"/><feComposite operator="in" in2="b"/><feComposite in="SourceGraphic"/></filter></defs><g transform="translate(-443 -24)"><g class="e" transform="matrix(1, 0, 0, 1, 443, 24)"><g class="a" transform="translate(9 6)"><rect class="c" width="40" height="40" rx="5"/><rect class="d" x="0.5" y="0.5" width="39" height="39" rx="4.5"/></g></g><g transform="translate(459 -53.243)"><g transform="translate(0 96.243)"><path class="b" d="M25.538,97.891H.824a.824.824,0,1,1,0-1.648H25.538a.824.824,0,1,1,0,1.648Z" transform="translate(0 -96.243)"/><path class="b" d="M.824,180.455H25.538a.824.824,0,1,1,0,1.648H.824a.824.824,0,1,1,0-1.648Z" transform="translate(0 -174.688)"/><path class="b" d="M121.127,264.667H137.6a.824.824,0,1,1,0,1.648H121.127a.824.824,0,0,1,0-1.648Z" transform="translate(-120.303 -253.134)"/></g></g></g></svg>