<svg xmlns="http://www.w3.org/2000/svg" width="100" height="47.99" viewBox="0 0 100 47.99"><defs><style>.a{fill:#e9edf1;}.b{fill:#f8fcff;}.c{fill:#e1effb;}.d{fill:#f33a3a;}.e{fill:#dd172f;}.f{fill:#fff;}</style></defs><g transform="translate(0 -0.01)"><ellipse class="a" cx="50" cy="4.5" rx="50" ry="4.5" transform="translate(0 39)"/><g transform="translate(25)"><path class="b" d="M49.681,40.445,27.038,1.178a2.352,2.352,0,0,0-4.077,0L.319,40.445A2.357,2.357,0,0,0,2.357,43.98H47.643A2.357,2.357,0,0,0,49.681,40.445Z" transform="translate(0 0.01)"/><path class="c" d="M29.588,40.445,6.945,1.178a2.352,2.352,0,0,0-4.077,0L0,6.153,19.774,40.445a2.357,2.357,0,0,1-2.038,3.535H27.55A2.357,2.357,0,0,0,29.588,40.445Z" transform="translate(20.093 0.01)"/><path class="d" d="M2.357,43.98A2.357,2.357,0,0,1,.319,40.445L22.962,1.178a2.353,2.353,0,0,1,4.077,0L49.681,40.445a2.356,2.356,0,0,1-2.038,3.535Z" transform="translate(0 0.01)"/><g transform="translate(22.559)"><path class="e" d="M27.074,40.445,4.431,1.178a2.352,2.352,0,0,0-4.077,0L0,1.792l2.365,4.1a.446.446,0,0,1,.417.224l19.373,33.6a.447.447,0,0,1-.015.474l.149.258A2.357,2.357,0,0,1,20.25,43.98h4.785A2.357,2.357,0,0,0,27.074,40.445Z" transform="translate(0.049 0.01)"/><path class="f" d="M0,22.356a1.942,1.942,0,1,1,3.884,0,1.981,1.981,0,0,1-1.926,1.961A1.965,1.965,0,0,1,0,22.356ZM.588,16.93C.588,12.191.2,6.308.2,1.569A1.554,1.554,0,0,1,1.926,0a1.571,1.571,0,0,1,1.73,1.569c0,4.739-.424,10.623-.424,15.361,0,.719-.784,1.047-1.306,1.047C1.208,17.977.588,17.649.588,16.93Z" transform="translate(0.499 13.451)"/></g></g></g></svg>