<svg xmlns="http://www.w3.org/2000/svg" xmlns:xlink="http://www.w3.org/1999/xlink" width="20" height="20" viewBox="0 0 20 20">
  <defs>
    <clipPath id="clip-path">
      <rect width="20" height="20" fill="none"/>
    </clipPath>
  </defs>
  <g id="user_9_" data-name="user (9)" clip-path="url(#clip-path)">
    <g id="user_9_2" data-name="user (9)">
      <circle id="Ellipse_347" data-name="Ellipse 347" cx="10" cy="10" r="10" fill="#eceff1"/>
      <path id="Path_158" data-name="Path 158" d="M78.481,77.348a3.712,3.712,0,0,0-1.54-.711l-2.741-.55a.618.618,0,0,1-.5-.612v-.629a7.511,7.511,0,0,0,.516-.92,5.05,5.05,0,0,1,.44-.771,4.087,4.087,0,0,0,1.257-1.991,1.92,1.92,0,0,0-.176-1.475,11.073,11.073,0,0,0-.214-2.526,2.758,2.758,0,0,0-.651-2.024,1.933,1.933,0,0,0-1.161-.488,2.029,2.029,0,0,1-.426-.1A4.411,4.411,0,0,0,71.179,64a4.936,4.936,0,0,0-4.347,2.982,7.1,7.1,0,0,0-.171,2.253l-.016.451a2,2,0,0,0-.164,1.475,4.079,4.079,0,0,0,1.266,2,5.488,5.488,0,0,1,.439.767,7.768,7.768,0,0,0,.52.916v.629a.621.621,0,0,1-.5.612l-2.744.55a3.72,3.72,0,0,0-1.535.71.626.626,0,0,0-.074.91,9.952,9.952,0,0,0,14.7,0,.626.626,0,0,0-.074-.91Z" transform="translate(-61.205 -61.5)" fill="#8d8d8d"/>
    </g>
  </g>
</svg>
